# xmcd
#
# Track frame offsets: 
#        150
#        15230
#        24390
#        35670
#        54655
#        66860
#        78547
#        88900
#        100402
#        112900
#        126555
#        139740
#
# Disc length: 2013 seconds
#
# Revision: 0
# Processed by: cddbd v1.5.1PL2 Copyright (c) Steve Scherf et al.
# Submitted via: ExactAudioCopy v0.95b3
#
DISCID=a107db0c
DTITLE=Various Artist - Paulo Vanzolini
DYEAR=1997
DGENRE=MPB
TTITLE0=Ronda (Cláudia Morena)
TTITLE1=Praça Clóvis (Chico Buarque de Hollanda)
TTITLE2=Chorava no meio da rua (Cristina)
TTITLE3=Capoeira do Arnaldo (Luiz Carlos Paraná)
TTITLE4=Juízo final (Adauto Santos)
TTITLE5=Amor de trapo e farrapo (Mauricy Moura)
TTITLE6=Samba erudito (Chico Buarque de Hollanda)
TTITLE7=Volta por cima (Mauricy Moura)
TTITLE8=Napoleão (Luiz Carlos Paraná)
TTITLE9=Morte é paz (Cláudia Morena)
TTITLE10=Cravo branco (Adauto Santos)
TTITLE11=Leilão (Luiz Carlos Paraná)
EXTD=
EXTT0=
EXTT1=
EXTT2=
EXTT3=
EXTT4=
EXTT5=
EXTT6=
EXTT7=
EXTT8=
EXTT9=
EXTT10=
EXTT11=
PLAYORDER=
